# xmcd
#
# Track frame offsets:
#       150
#       12825
#       21375
#       36600
#       49425
#       71400
#       87000
#       103950
#       117975
#       127275
#       133350
#       151275
#       160425
#
# Disc length: 2358 seconds
#
# Revision: 1
# Processed by: cddbd v1.5.1PL0 Copyright (c) Steve Scherf et al.
# Submitted via: MusiCat 1.1
#
DISCID=c309340d
DTITLE=John Renbourn - So Clear
DYEAR=1973
DGENRE=
TTITLE0=lady Goes To Church
TTITLE1=Another Monday
TTITLE2=Shake Shake Mamma
TTITLE3=Branlse Gay/ Bransle de Bourgogne
TTITLE4=So Clear
TTITLE5=The Lady and the Unicorn
TTITLE6=Plainsong
TTITLE7=Blues Run The Game
TTITLE8=Waltz
TTITLE9=Westron Wynde
TTITLE10=The Cuckoo
TTITLE11=Transition
TTITLE12=Country Blues
EXTD=Transatlantic\n\nfrom vinyl\n
EXTT0=
EXTT1=
EXTT2=
EXTT3=
EXTT4=
EXTT5=
EXTT6=
EXTT7=
EXTT8=
EXTT9=
EXTT10=
EXTT11=
EXTT12=
PLAYORDER=
